<svg width="512" height="342" xmlns="http://www.w3.org/2000/svg" xml:space="preserve" version="1.1">

 <g>
  <title>Layer 1</title>
  <rect x="0" id="svg_1" fill="#F0F0F0" height="341.337" width="512" y="0.333"/>
  <polygon id="svg_2" fill="#D80027" points="288,0.3300018310546875 224,0.3300018310546875 224,138.99600219726562 0,138.99600219726562 0,202.99600219726562 224,202.99600219726562 224,341.6619873046875 288,341.6619873046875 288,202.99600219726562 512,202.99600219726562 512,138.99600219726562 288,138.99600219726562 "/>
  <g id="svg_3">
   <polygon id="svg_4" fill="#0052B4" points="393.7850036621094,230.35800170898438 512,296.03399658203125 512,230.35800170898438 "/>
   <polygon id="svg_5" fill="#0052B4" points="311.6520080566406,230.35800170898438 512,341.6619873046875 512,310.18798828125 368.3070068359375,230.35800170898438 "/>
   <polygon id="svg_6" fill="#0052B4" points="458.6340026855469,341.6619873046875 311.6520080566406,259.99798583984375 311.6520080566406,341.6619873046875 "/>
  </g>
  <polygon id="svg_7" fill="#F0F0F0" points="311.6520080566406,230.35800170898438 512,341.6619873046875 512,310.18798828125 368.3070068359375,230.35800170898438 "/>
  <polygon id="svg_8" fill="#D80027" points="311.6520080566406,230.35800170898438 512,341.6619873046875 512,310.18798828125 368.3070068359375,230.35800170898438 "/>
  <g id="svg_9">
   <polygon id="svg_10" fill="#0052B4" points="90.34100341796875,230.35598754882812 0,280.5459899902344 0,230.35598754882812 "/>
   <polygon id="svg_11" fill="#0052B4" points="200.34800720214844,244.510009765625 200.34800720214844,341.6610107421875 25.490999221801758,341.6610107421875 "/>
  </g>
  <polygon id="svg_12" fill="#D80027" points="143.6929931640625,230.35800170898438 0,310.18798828125 0,341.6619873046875 0,341.6619873046875 200.34800720214844,230.35800170898438 "/>
  <g id="svg_13">
   <polygon id="svg_14" fill="#0052B4" points="118.21499633789062,111.63400268554688 0,45.95799255371094 0,111.63400268554688 "/>
   <polygon id="svg_15" fill="#0052B4" points="200.34800720214844,111.63400268554688 0,0.3300018310546875 0,31.804000854492188 143.6929931640625,111.63400268554688 "/>
   <polygon id="svg_16" fill="#0052B4" points="53.36600112915039,0.3300018310546875 200.34800720214844,81.99400329589844 200.34800720214844,0.3300018310546875 "/>
  </g>
  <polygon id="svg_17" fill="#F0F0F0" points="200.34800720214844,111.63400268554688 0,0.3300018310546875 0,31.804000854492188 143.6929931640625,111.63400268554688 "/>
  <polygon id="svg_18" fill="#D80027" points="200.34800720214844,111.63400268554688 0,0.3300018310546875 0,31.804000854492188 143.6929931640625,111.63400268554688 "/>
  <g id="svg_19">
   <polygon id="svg_20" fill="#0052B4" points="421.65899658203125,111.63600158691406 512,61.44599914550781 512,111.63600158691406 "/>
   <polygon id="svg_21" fill="#0052B4" points="311.6520080566406,97.48199462890625 311.6520080566406,0.33100128173828125 486.5090026855469,0.33100128173828125 "/>
  </g>
  <polygon id="svg_22" fill="#D80027" points="368.3070068359375,111.63400268554688 512,31.804000854492188 512,0.3300018310546875 512,0.3300018310546875 311.6520080566406,111.63400268554688 "/>
  <g id="svg_23"/>
  <g id="svg_24"/>
  <g id="svg_25"/>
  <g id="svg_26"/>
  <g id="svg_27"/>
  <g id="svg_28"/>
  <g id="svg_29"/>
  <g id="svg_30"/>
  <g id="svg_31"/>
  <g id="svg_32"/>
  <g id="svg_33"/>
  <g id="svg_34"/>
  <g id="svg_35"/>
  <g id="svg_36"/>
  <g id="svg_37"/>
 </g>
</svg>